<svg width="512" height="512" viewBox="0 0 512 512" fill="none" xmlns="http://www.w3.org/2000/svg">
  <!-- Background circle -->
  <circle cx="256" cy="256" r="256" fill="url(#gradient)"/>
  
  <!-- Main icon - Speech bubble with sparkle -->
  <g transform="translate(128, 128)">
    <!-- Speech bubble -->
    <path d="M64 32C64 14.3269 49.6731 0 32 0C14.3269 0 0 14.3269 0 32C0 49.6731 14.3269 64 32 64H48L64 80V64C64 49.6731 49.6731 32 32 32C14.3269 32 0 17.6731 0 0C0 -17.6731 14.3269 -32 32 -32C49.6731 -32 64 -17.6731 64 0V32Z" fill="white" opacity="0.9"/>
    
    <!-- Sparkle effect -->
    <g transform="translate(40, 20)">
      <path d="M8 0L9.5 3.5L13 5L9.5 6.5L8 10L6.5 6.5L3 5L6.5 3.5L8 0Z" fill="white"/>
      <path d="M20 4L21 6L23 7L21 8L20 10L19 8L17 7L19 6L20 4Z" fill="white" opacity="0.7"/>
      <path d="M4 16L5 18L7 19L5 20L4 22L3 20L1 19L3 18L4 16Z" fill="white" opacity="0.6"/>
    </g>
    
    <!-- Text lines in speech bubble -->
    <g transform="translate(16, 20)">
      <rect x="0" y="0" width="32" height="2" rx="1" fill="url(#gradient)" opacity="0.7"/>
      <rect x="0" y="6" width="24" height="2" rx="1" fill="url(#gradient)" opacity="0.5"/>
      <rect x="0" y="12" width="28" height="2" rx="1" fill="url(#gradient)" opacity="0.6"/>
    </g>
  </g>
  
  <!-- Gradient definition -->
  <defs>
    <linearGradient id="gradient" x1="0%" y1="0%" x2="100%" y2="100%">
      <stop offset="0%" style="stop-color:#3b82f6;stop-opacity:1" />
      <stop offset="100%" style="stop-color:#8b5cf6;stop-opacity:1" />
    </linearGradient>
  </defs>
</svg>
